<mxfile host="app.diagrams.net" agent="Mozilla/5.0 (Windows NT 10.0; Win64; x64) AppleWebKit/537.36 (KHTML, like Gecko) Chrome/128.0.0.0 Safari/537.36" version="24.7.16">
  <diagram id="C5RBs43oDa-KdzZeNtuy" name="Page-1">
    <mxGraphModel dx="3452" dy="2562" grid="1" gridSize="10" guides="1" tooltips="1" connect="1" arrows="1" fold="1" page="1" pageScale="1" pageWidth="827" pageHeight="1169" math="0" shadow="0">
      <root>
        <mxCell id="WIyWlLk6GJQsqaUBKTNV-0" />
        <mxCell id="WIyWlLk6GJQsqaUBKTNV-1" parent="WIyWlLk6GJQsqaUBKTNV-0" />
        <mxCell id="gMLQxk1A9vGw84Tje5RA-8" value="DANH MỤC SẢN PHẨM" style="swimlane;whiteSpace=wrap;html=1;" parent="WIyWlLk6GJQsqaUBKTNV-1" vertex="1">
          <mxGeometry x="-391" y="-260" width="481" height="349" as="geometry" />
        </mxCell>
        <mxCell id="zkfFHV4jXpPFQw0GAbJ--13" value="LOẠI SẢN PHẨM" style="swimlane;fontStyle=0;align=center;verticalAlign=top;childLayout=stackLayout;horizontal=1;startSize=26;horizontalStack=0;resizeParent=1;resizeLast=0;collapsible=1;marginBottom=0;rounded=0;shadow=0;strokeWidth=1;" parent="gMLQxk1A9vGw84Tje5RA-8" vertex="1">
          <mxGeometry x="10" y="38" width="160" height="70" as="geometry">
            <mxRectangle x="340" y="380" width="170" height="26" as="alternateBounds" />
          </mxGeometry>
        </mxCell>
        <mxCell id="2JwqMp_k5enSgnjFju4G-0" value="ADMIN" style="swimlane;fontStyle=2;align=center;verticalAlign=top;childLayout=stackLayout;horizontal=1;startSize=26;horizontalStack=0;resizeParent=1;resizeLast=0;collapsible=1;marginBottom=0;rounded=0;shadow=0;strokeWidth=1;" parent="gMLQxk1A9vGw84Tje5RA-8" vertex="1" collapsed="1">
          <mxGeometry x="281" y="149" width="160" height="26" as="geometry">
            <mxRectangle x="270" y="140" width="160" height="68" as="alternateBounds" />
          </mxGeometry>
        </mxCell>
        <mxCell id="gMLQxk1A9vGw84Tje5RA-20" value="ĐÁNH DẤU SẢN PHẨM" style="swimlane;fontStyle=0;align=center;verticalAlign=top;childLayout=stackLayout;horizontal=1;startSize=26;horizontalStack=0;resizeParent=1;resizeLast=0;collapsible=1;marginBottom=0;rounded=0;shadow=0;strokeWidth=1;" parent="gMLQxk1A9vGw84Tje5RA-8" vertex="1">
          <mxGeometry x="10" y="139.5" width="160" height="70" as="geometry">
            <mxRectangle x="130" y="380" width="160" height="26" as="alternateBounds" />
          </mxGeometry>
        </mxCell>
        <mxCell id="zkfFHV4jXpPFQw0GAbJ--0" value="SẢN PHẨM" style="swimlane;fontStyle=2;align=center;verticalAlign=top;childLayout=stackLayout;horizontal=1;startSize=26;horizontalStack=0;resizeParent=1;resizeLast=0;collapsible=1;marginBottom=0;rounded=0;shadow=0;strokeWidth=1;" parent="gMLQxk1A9vGw84Tje5RA-8" vertex="1">
          <mxGeometry x="281" y="38" width="160" height="68" as="geometry">
            <mxRectangle x="230" y="140" width="160" height="26" as="alternateBounds" />
          </mxGeometry>
        </mxCell>
        <mxCell id="ElflJJgZC1r8IvU2UBSL-0" value="" style="endArrow=none;html=1;rounded=0;exitX=1;exitY=0.5;exitDx=0;exitDy=0;entryX=0;entryY=0.5;entryDx=0;entryDy=0;" edge="1" parent="gMLQxk1A9vGw84Tje5RA-8" source="zkfFHV4jXpPFQw0GAbJ--13" target="zkfFHV4jXpPFQw0GAbJ--0">
          <mxGeometry width="50" height="50" relative="1" as="geometry">
            <mxPoint x="450" y="320" as="sourcePoint" />
            <mxPoint x="500" y="270" as="targetPoint" />
          </mxGeometry>
        </mxCell>
        <mxCell id="ElflJJgZC1r8IvU2UBSL-7" value="is..a" style="edgeLabel;html=1;align=center;verticalAlign=middle;resizable=0;points=[];" vertex="1" connectable="0" parent="ElflJJgZC1r8IvU2UBSL-0">
          <mxGeometry x="-0.2771" y="-3" relative="1" as="geometry">
            <mxPoint x="14" y="-4" as="offset" />
          </mxGeometry>
        </mxCell>
        <mxCell id="ElflJJgZC1r8IvU2UBSL-8" value="" style="endArrow=none;html=1;rounded=0;edgeStyle=orthogonalEdgeStyle;curved=1;" edge="1" parent="gMLQxk1A9vGw84Tje5RA-8">
          <mxGeometry width="50" height="50" relative="1" as="geometry">
            <mxPoint x="171" y="189" as="sourcePoint" />
            <mxPoint x="270" y="87" as="targetPoint" />
            <Array as="points">
              <mxPoint x="221" y="189" />
              <mxPoint x="221" y="87" />
            </Array>
          </mxGeometry>
        </mxCell>
        <mxCell id="ElflJJgZC1r8IvU2UBSL-9" value="1..*&lt;span style=&quot;white-space: pre;&quot;&gt;&#x9;&lt;/span&gt;" style="edgeLabel;html=1;align=center;verticalAlign=middle;resizable=0;points=[];" vertex="1" connectable="0" parent="ElflJJgZC1r8IvU2UBSL-8">
          <mxGeometry x="-0.2771" y="-3" relative="1" as="geometry">
            <mxPoint x="-33" y="13" as="offset" />
          </mxGeometry>
        </mxCell>
        <mxCell id="ElflJJgZC1r8IvU2UBSL-20" value="0..*" style="edgeLabel;html=1;align=center;verticalAlign=middle;resizable=0;points=[];" vertex="1" connectable="0" parent="ElflJJgZC1r8IvU2UBSL-8">
          <mxGeometry x="0.8924" y="-1" relative="1" as="geometry">
            <mxPoint x="-8" as="offset" />
          </mxGeometry>
        </mxCell>
        <mxCell id="ElflJJgZC1r8IvU2UBSL-11" value="" style="endArrow=none;html=1;rounded=0;" edge="1" parent="gMLQxk1A9vGw84Tje5RA-8" source="2JwqMp_k5enSgnjFju4G-0" target="zkfFHV4jXpPFQw0GAbJ--0">
          <mxGeometry width="50" height="50" relative="1" as="geometry">
            <mxPoint x="301" y="158" as="sourcePoint" />
            <mxPoint x="351" y="99" as="targetPoint" />
          </mxGeometry>
        </mxCell>
        <mxCell id="ElflJJgZC1r8IvU2UBSL-12" value="CRUD" style="edgeLabel;html=1;align=center;verticalAlign=middle;resizable=0;points=[];" vertex="1" connectable="0" parent="ElflJJgZC1r8IvU2UBSL-11">
          <mxGeometry x="0.001" relative="1" as="geometry">
            <mxPoint as="offset" />
          </mxGeometry>
        </mxCell>
        <mxCell id="ElflJJgZC1r8IvU2UBSL-13" value="KHÁCH HÀNG" style="swimlane;fontStyle=0;align=center;verticalAlign=top;childLayout=stackLayout;horizontal=1;startSize=26;horizontalStack=0;resizeParent=1;resizeLast=0;collapsible=1;marginBottom=0;rounded=0;shadow=0;strokeWidth=1;" vertex="1" parent="gMLQxk1A9vGw84Tje5RA-8">
          <mxGeometry x="10" y="260" width="160" height="70" as="geometry">
            <mxRectangle x="340" y="380" width="170" height="26" as="alternateBounds" />
          </mxGeometry>
        </mxCell>
        <mxCell id="ElflJJgZC1r8IvU2UBSL-14" value="" style="endArrow=none;html=1;rounded=0;edgeStyle=orthogonalEdgeStyle;curved=1;exitX=1;exitY=0.5;exitDx=0;exitDy=0;" edge="1" parent="gMLQxk1A9vGw84Tje5RA-8" source="ElflJJgZC1r8IvU2UBSL-13">
          <mxGeometry width="50" height="50" relative="1" as="geometry">
            <mxPoint x="171" y="289" as="sourcePoint" />
            <mxPoint x="271" y="99" as="targetPoint" />
            <Array as="points">
              <mxPoint x="211" y="295" />
              <mxPoint x="211" y="210" />
              <mxPoint x="241" y="210" />
              <mxPoint x="241" y="99" />
            </Array>
          </mxGeometry>
        </mxCell>
        <mxCell id="ElflJJgZC1r8IvU2UBSL-15" value="Filter" style="edgeLabel;html=1;align=center;verticalAlign=middle;resizable=0;points=[];" vertex="1" connectable="0" parent="ElflJJgZC1r8IvU2UBSL-14">
          <mxGeometry x="-0.2771" y="-3" relative="1" as="geometry">
            <mxPoint x="7" y="-14" as="offset" />
          </mxGeometry>
        </mxCell>
        <mxCell id="ElflJJgZC1r8IvU2UBSL-21" value="" style="endArrow=none;html=1;rounded=0;exitX=0.5;exitY=0;exitDx=0;exitDy=0;entryX=0.5;entryY=1;entryDx=0;entryDy=0;" edge="1" parent="gMLQxk1A9vGw84Tje5RA-8" source="ElflJJgZC1r8IvU2UBSL-13" target="gMLQxk1A9vGw84Tje5RA-20">
          <mxGeometry width="50" height="50" relative="1" as="geometry">
            <mxPoint x="461" y="230" as="sourcePoint" />
            <mxPoint x="511" y="180" as="targetPoint" />
          </mxGeometry>
        </mxCell>
        <mxCell id="ElflJJgZC1r8IvU2UBSL-22" value="1..*" style="edgeLabel;html=1;align=center;verticalAlign=middle;resizable=0;points=[];" vertex="1" connectable="0" parent="ElflJJgZC1r8IvU2UBSL-21">
          <mxGeometry x="0.0189" y="2" relative="1" as="geometry">
            <mxPoint as="offset" />
          </mxGeometry>
        </mxCell>
        <mxCell id="gMLQxk1A9vGw84Tje5RA-9" value="GIỎ HÀNG" style="swimlane;whiteSpace=wrap;html=1;" parent="WIyWlLk6GJQsqaUBKTNV-1" vertex="1">
          <mxGeometry x="160" y="-260" width="380" height="290" as="geometry" />
        </mxCell>
        <mxCell id="2JwqMp_k5enSgnjFju4G-1" value="GIỎ HÀNG" style="swimlane;fontStyle=0;align=center;verticalAlign=top;childLayout=stackLayout;horizontal=1;startSize=26;horizontalStack=0;resizeParent=1;resizeLast=0;collapsible=1;marginBottom=0;rounded=0;shadow=0;strokeWidth=1;" parent="gMLQxk1A9vGw84Tje5RA-9" vertex="1">
          <mxGeometry x="210" y="100" width="160" height="70" as="geometry">
            <mxRectangle x="130" y="380" width="160" height="26" as="alternateBounds" />
          </mxGeometry>
        </mxCell>
        <mxCell id="2JwqMp_k5enSgnjFju4G-2" value="KHÁCH HÀNG" style="swimlane;fontStyle=0;align=center;verticalAlign=top;childLayout=stackLayout;horizontal=1;startSize=26;horizontalStack=0;resizeParent=1;resizeLast=0;collapsible=1;marginBottom=0;rounded=0;shadow=0;strokeWidth=1;" parent="gMLQxk1A9vGw84Tje5RA-9" vertex="1">
          <mxGeometry x="10" y="170" width="160" height="70" as="geometry">
            <mxRectangle x="340" y="380" width="170" height="26" as="alternateBounds" />
          </mxGeometry>
        </mxCell>
        <mxCell id="gMLQxk1A9vGw84Tje5RA-10" value="SẢN PHẨM" style="swimlane;fontStyle=2;align=center;verticalAlign=top;childLayout=stackLayout;horizontal=1;startSize=26;horizontalStack=0;resizeParent=1;resizeLast=0;collapsible=1;marginBottom=0;rounded=0;shadow=0;strokeWidth=1;" parent="gMLQxk1A9vGw84Tje5RA-9" vertex="1">
          <mxGeometry x="10" y="40" width="160" height="68" as="geometry">
            <mxRectangle x="230" y="140" width="160" height="26" as="alternateBounds" />
          </mxGeometry>
        </mxCell>
        <mxCell id="ElflJJgZC1r8IvU2UBSL-23" value="" style="endArrow=none;html=1;rounded=0;entryX=0;entryY=0.5;entryDx=0;entryDy=0;exitX=1;exitY=0.5;exitDx=0;exitDy=0;edgeStyle=orthogonalEdgeStyle;curved=1;" edge="1" parent="gMLQxk1A9vGw84Tje5RA-9" source="2JwqMp_k5enSgnjFju4G-2" target="2JwqMp_k5enSgnjFju4G-1">
          <mxGeometry width="50" height="50" relative="1" as="geometry">
            <mxPoint x="169.73000000000002" y="215" as="sourcePoint" />
            <mxPoint x="209.73000000000002" y="146" as="targetPoint" />
          </mxGeometry>
        </mxCell>
        <mxCell id="ElflJJgZC1r8IvU2UBSL-24" value="Action" style="edgeLabel;html=1;align=center;verticalAlign=middle;resizable=0;points=[];" vertex="1" connectable="0" parent="ElflJJgZC1r8IvU2UBSL-23">
          <mxGeometry x="0.1309" y="2" relative="1" as="geometry">
            <mxPoint as="offset" />
          </mxGeometry>
        </mxCell>
        <mxCell id="ElflJJgZC1r8IvU2UBSL-54" value="" style="endArrow=none;html=1;rounded=0;" edge="1" parent="gMLQxk1A9vGw84Tje5RA-9" source="2JwqMp_k5enSgnjFju4G-1" target="gMLQxk1A9vGw84Tje5RA-10">
          <mxGeometry width="50" height="50" relative="1" as="geometry">
            <mxPoint x="70" y="220" as="sourcePoint" />
            <mxPoint x="120" y="170" as="targetPoint" />
            <Array as="points">
              <mxPoint x="290" y="74" />
            </Array>
          </mxGeometry>
        </mxCell>
        <mxCell id="ElflJJgZC1r8IvU2UBSL-56" value="1..*" style="edgeLabel;html=1;align=center;verticalAlign=middle;resizable=0;points=[];" vertex="1" connectable="0" parent="ElflJJgZC1r8IvU2UBSL-54">
          <mxGeometry x="0.0653" y="2" relative="1" as="geometry">
            <mxPoint as="offset" />
          </mxGeometry>
        </mxCell>
        <mxCell id="gMLQxk1A9vGw84Tje5RA-11" value="THANH TOÁN" style="swimlane;whiteSpace=wrap;html=1;" parent="WIyWlLk6GJQsqaUBKTNV-1" vertex="1">
          <mxGeometry x="-636" y="450" width="670" height="490" as="geometry" />
        </mxCell>
        <mxCell id="gMLQxk1A9vGw84Tje5RA-2" value="THÔNG TIN ĐƠN HÀNG" style="swimlane;fontStyle=2;align=center;verticalAlign=top;childLayout=stackLayout;horizontal=1;startSize=26;horizontalStack=0;resizeParent=1;resizeLast=0;collapsible=1;marginBottom=0;rounded=0;shadow=0;strokeWidth=1;" parent="gMLQxk1A9vGw84Tje5RA-11" vertex="1">
          <mxGeometry x="330" y="390" width="160" height="68" as="geometry">
            <mxRectangle x="230" y="140" width="160" height="26" as="alternateBounds" />
          </mxGeometry>
        </mxCell>
        <mxCell id="2JwqMp_k5enSgnjFju4G-3" value="THANH TOÁN" style="swimlane;fontStyle=0;align=center;verticalAlign=top;childLayout=stackLayout;horizontal=1;startSize=26;horizontalStack=0;resizeParent=1;resizeLast=0;collapsible=1;marginBottom=0;rounded=0;shadow=0;strokeWidth=1;" parent="gMLQxk1A9vGw84Tje5RA-11" vertex="1">
          <mxGeometry x="185" y="210" width="160" height="70" as="geometry">
            <mxRectangle x="550" y="140" width="160" height="26" as="alternateBounds" />
          </mxGeometry>
        </mxCell>
        <mxCell id="gMLQxk1A9vGw84Tje5RA-12" value="KHÁCH HÀNG" style="swimlane;fontStyle=0;align=center;verticalAlign=top;childLayout=stackLayout;horizontal=1;startSize=26;horizontalStack=0;resizeParent=1;resizeLast=0;collapsible=1;marginBottom=0;rounded=0;shadow=0;strokeWidth=1;" parent="gMLQxk1A9vGw84Tje5RA-11" vertex="1">
          <mxGeometry x="247" y="52" width="160" height="70" as="geometry">
            <mxRectangle x="340" y="380" width="170" height="26" as="alternateBounds" />
          </mxGeometry>
        </mxCell>
        <mxCell id="ElflJJgZC1r8IvU2UBSL-36" value="" style="endArrow=none;html=1;rounded=0;" edge="1" parent="gMLQxk1A9vGw84Tje5RA-11" source="2JwqMp_k5enSgnjFju4G-3" target="gMLQxk1A9vGw84Tje5RA-12">
          <mxGeometry width="50" height="50" relative="1" as="geometry">
            <mxPoint x="660" y="80" as="sourcePoint" />
            <mxPoint x="710" y="30" as="targetPoint" />
          </mxGeometry>
        </mxCell>
        <mxCell id="ElflJJgZC1r8IvU2UBSL-37" value="0..*" style="edgeLabel;html=1;align=center;verticalAlign=middle;resizable=0;points=[];" vertex="1" connectable="0" parent="ElflJJgZC1r8IvU2UBSL-36">
          <mxGeometry x="0.0204" y="-2" relative="1" as="geometry">
            <mxPoint x="18" y="-14" as="offset" />
          </mxGeometry>
        </mxCell>
        <mxCell id="ElflJJgZC1r8IvU2UBSL-38" value="TRẠNG THÁI ĐƠN HÀNG" style="swimlane;fontStyle=2;align=center;verticalAlign=top;childLayout=stackLayout;horizontal=1;startSize=26;horizontalStack=0;resizeParent=1;resizeLast=0;collapsible=1;marginBottom=0;rounded=0;shadow=0;strokeWidth=1;" vertex="1" parent="gMLQxk1A9vGw84Tje5RA-11">
          <mxGeometry x="436" y="52" width="160" height="68" as="geometry">
            <mxRectangle x="230" y="140" width="160" height="26" as="alternateBounds" />
          </mxGeometry>
        </mxCell>
        <mxCell id="ElflJJgZC1r8IvU2UBSL-39" value="" style="endArrow=none;html=1;rounded=0;edgeStyle=orthogonalEdgeStyle;curved=1;" edge="1" parent="gMLQxk1A9vGw84Tje5RA-11" source="ElflJJgZC1r8IvU2UBSL-38" target="2JwqMp_k5enSgnjFju4G-3">
          <mxGeometry width="50" height="50" relative="1" as="geometry">
            <mxPoint x="400" y="300" as="sourcePoint" />
            <mxPoint x="450" y="250" as="targetPoint" />
            <Array as="points">
              <mxPoint x="516" y="230" />
            </Array>
          </mxGeometry>
        </mxCell>
        <mxCell id="ElflJJgZC1r8IvU2UBSL-42" value="PHƯƠNG THỨC THANH TOÁN" style="swimlane;fontStyle=2;align=center;verticalAlign=top;childLayout=stackLayout;horizontal=1;startSize=26;horizontalStack=0;resizeParent=1;resizeLast=0;collapsible=1;marginBottom=0;rounded=0;shadow=0;strokeWidth=1;" vertex="1" parent="gMLQxk1A9vGw84Tje5RA-11">
          <mxGeometry x="20" y="54" width="180" height="68" as="geometry">
            <mxRectangle x="230" y="140" width="160" height="26" as="alternateBounds" />
          </mxGeometry>
        </mxCell>
        <mxCell id="ElflJJgZC1r8IvU2UBSL-43" value="" style="endArrow=none;html=1;rounded=0;exitX=0.5;exitY=0;exitDx=0;exitDy=0;entryX=0.5;entryY=1;entryDx=0;entryDy=0;edgeStyle=orthogonalEdgeStyle;curved=1;" edge="1" parent="gMLQxk1A9vGw84Tje5RA-11" source="2JwqMp_k5enSgnjFju4G-3" target="ElflJJgZC1r8IvU2UBSL-42">
          <mxGeometry width="50" height="50" relative="1" as="geometry">
            <mxPoint x="490" y="280" as="sourcePoint" />
            <mxPoint x="540" y="230" as="targetPoint" />
          </mxGeometry>
        </mxCell>
        <mxCell id="ElflJJgZC1r8IvU2UBSL-41" value="1..1" style="text;html=1;align=center;verticalAlign=middle;resizable=0;points=[];autosize=1;strokeColor=none;fillColor=none;" vertex="1" parent="gMLQxk1A9vGw84Tje5RA-11">
          <mxGeometry x="476" y="140" width="40" height="30" as="geometry" />
        </mxCell>
        <mxCell id="ElflJJgZC1r8IvU2UBSL-44" value="1..1" style="text;html=1;align=center;verticalAlign=middle;resizable=0;points=[];autosize=1;strokeColor=none;fillColor=none;" vertex="1" parent="gMLQxk1A9vGw84Tje5RA-11">
          <mxGeometry x="185" y="140" width="40" height="30" as="geometry" />
        </mxCell>
        <mxCell id="ElflJJgZC1r8IvU2UBSL-49" value="LOẠI GIAO HÀNG" style="swimlane;fontStyle=0;align=center;verticalAlign=top;childLayout=stackLayout;horizontal=1;startSize=26;horizontalStack=0;resizeParent=1;resizeLast=0;collapsible=1;marginBottom=0;rounded=0;shadow=0;strokeWidth=1;" vertex="1" parent="gMLQxk1A9vGw84Tje5RA-11">
          <mxGeometry x="40" y="370" width="160" height="70" as="geometry">
            <mxRectangle x="550" y="140" width="160" height="26" as="alternateBounds" />
          </mxGeometry>
        </mxCell>
        <mxCell id="ElflJJgZC1r8IvU2UBSL-50" value="" style="endArrow=none;html=1;rounded=0;edgeStyle=orthogonalEdgeStyle;curved=1;" edge="1" parent="gMLQxk1A9vGw84Tje5RA-11" source="2JwqMp_k5enSgnjFju4G-3" target="ElflJJgZC1r8IvU2UBSL-49">
          <mxGeometry width="50" height="50" relative="1" as="geometry">
            <mxPoint x="300" y="380" as="sourcePoint" />
            <mxPoint x="350" y="330" as="targetPoint" />
          </mxGeometry>
        </mxCell>
        <mxCell id="ElflJJgZC1r8IvU2UBSL-51" value="1..1" style="edgeLabel;html=1;align=center;verticalAlign=middle;resizable=0;points=[];" vertex="1" connectable="0" parent="ElflJJgZC1r8IvU2UBSL-50">
          <mxGeometry x="0.1186" relative="1" as="geometry">
            <mxPoint as="offset" />
          </mxGeometry>
        </mxCell>
        <mxCell id="ElflJJgZC1r8IvU2UBSL-52" value="" style="endArrow=none;html=1;rounded=0;edgeStyle=orthogonalEdgeStyle;curved=1;" edge="1" parent="gMLQxk1A9vGw84Tje5RA-11" source="gMLQxk1A9vGw84Tje5RA-2" target="2JwqMp_k5enSgnjFju4G-3">
          <mxGeometry width="50" height="50" relative="1" as="geometry">
            <mxPoint x="350" y="290" as="sourcePoint" />
            <mxPoint x="400" y="240" as="targetPoint" />
          </mxGeometry>
        </mxCell>
        <mxCell id="ElflJJgZC1r8IvU2UBSL-53" value="1..1" style="edgeLabel;html=1;align=center;verticalAlign=middle;resizable=0;points=[];" vertex="1" connectable="0" parent="ElflJJgZC1r8IvU2UBSL-52">
          <mxGeometry x="0.0003" y="1" relative="1" as="geometry">
            <mxPoint as="offset" />
          </mxGeometry>
        </mxCell>
        <mxCell id="ElflJJgZC1r8IvU2UBSL-58" value="ADMIN" style="swimlane;fontStyle=2;align=center;verticalAlign=top;childLayout=stackLayout;horizontal=1;startSize=26;horizontalStack=0;resizeParent=1;resizeLast=0;collapsible=1;marginBottom=0;rounded=0;shadow=0;strokeWidth=1;" vertex="1" collapsed="1" parent="gMLQxk1A9vGw84Tje5RA-11">
          <mxGeometry x="436" y="232" width="160" height="26" as="geometry">
            <mxRectangle x="270" y="140" width="160" height="68" as="alternateBounds" />
          </mxGeometry>
        </mxCell>
        <mxCell id="ElflJJgZC1r8IvU2UBSL-59" value="" style="endArrow=none;html=1;rounded=0;" edge="1" parent="gMLQxk1A9vGw84Tje5RA-11" source="ElflJJgZC1r8IvU2UBSL-58" target="ElflJJgZC1r8IvU2UBSL-38">
          <mxGeometry width="50" height="50" relative="1" as="geometry">
            <mxPoint x="526" y="230" as="sourcePoint" />
            <mxPoint x="576" y="180" as="targetPoint" />
          </mxGeometry>
        </mxCell>
        <mxCell id="ElflJJgZC1r8IvU2UBSL-60" value="Action" style="edgeLabel;html=1;align=center;verticalAlign=middle;resizable=0;points=[];" vertex="1" connectable="0" parent="ElflJJgZC1r8IvU2UBSL-59">
          <mxGeometry x="-0.1853" y="-1" relative="1" as="geometry">
            <mxPoint as="offset" />
          </mxGeometry>
        </mxCell>
        <mxCell id="ElflJJgZC1r8IvU2UBSL-61" value="KHÁCH HÀNG" style="swimlane;fontStyle=0;align=center;verticalAlign=top;childLayout=stackLayout;horizontal=1;startSize=26;horizontalStack=0;resizeParent=1;resizeLast=0;collapsible=1;marginBottom=0;rounded=0;shadow=0;strokeWidth=1;" vertex="1" collapsed="1" parent="gMLQxk1A9vGw84Tje5RA-11">
          <mxGeometry x="436" y="290" width="164" height="26" as="geometry">
            <mxRectangle x="446" y="280" width="160" height="70" as="alternateBounds" />
          </mxGeometry>
        </mxCell>
        <mxCell id="ElflJJgZC1r8IvU2UBSL-62" value="" style="endArrow=none;html=1;rounded=0;edgeStyle=orthogonalEdgeStyle;curved=1;" edge="1" parent="gMLQxk1A9vGw84Tje5RA-11" source="2JwqMp_k5enSgnjFju4G-3" target="ElflJJgZC1r8IvU2UBSL-61">
          <mxGeometry width="50" height="50" relative="1" as="geometry">
            <mxPoint x="266" y="290" as="sourcePoint" />
            <mxPoint x="316" y="240" as="targetPoint" />
            <Array as="points">
              <mxPoint x="265" y="303" />
            </Array>
          </mxGeometry>
        </mxCell>
        <mxCell id="gMLQxk1A9vGw84Tje5RA-14" value="ĐÁNH GIÁ" style="swimlane;whiteSpace=wrap;html=1;" parent="WIyWlLk6GJQsqaUBKTNV-1" vertex="1">
          <mxGeometry x="200" y="510" width="360" height="320" as="geometry" />
        </mxCell>
        <mxCell id="gMLQxk1A9vGw84Tje5RA-4" value="ĐÁNH GIÁ" style="swimlane;fontStyle=2;align=center;verticalAlign=top;childLayout=stackLayout;horizontal=1;startSize=26;horizontalStack=0;resizeParent=1;resizeLast=0;collapsible=1;marginBottom=0;rounded=0;shadow=0;strokeWidth=1;" parent="gMLQxk1A9vGw84Tje5RA-14" vertex="1">
          <mxGeometry x="20" y="50" width="120" height="68" as="geometry">
            <mxRectangle x="230" y="140" width="160" height="26" as="alternateBounds" />
          </mxGeometry>
        </mxCell>
        <mxCell id="gMLQxk1A9vGw84Tje5RA-15" value="KHÁCH HÀNG" style="swimlane;fontStyle=0;align=center;verticalAlign=top;childLayout=stackLayout;horizontal=1;startSize=26;horizontalStack=0;resizeParent=1;resizeLast=0;collapsible=1;marginBottom=0;rounded=0;shadow=0;strokeWidth=1;" parent="gMLQxk1A9vGw84Tje5RA-14" vertex="1">
          <mxGeometry x="20" y="178" width="120" height="70" as="geometry">
            <mxRectangle x="340" y="380" width="170" height="26" as="alternateBounds" />
          </mxGeometry>
        </mxCell>
        <mxCell id="gMLQxk1A9vGw84Tje5RA-16" value="SẢN PHẨM" style="swimlane;fontStyle=2;align=center;verticalAlign=top;childLayout=stackLayout;horizontal=1;startSize=26;horizontalStack=0;resizeParent=1;resizeLast=0;collapsible=1;marginBottom=0;rounded=0;shadow=0;strokeWidth=1;" parent="gMLQxk1A9vGw84Tje5RA-14" vertex="1">
          <mxGeometry x="240" y="50" width="110" height="68" as="geometry">
            <mxRectangle x="230" y="140" width="160" height="26" as="alternateBounds" />
          </mxGeometry>
        </mxCell>
        <mxCell id="ElflJJgZC1r8IvU2UBSL-88" value="" style="endArrow=none;html=1;rounded=0;" edge="1" parent="gMLQxk1A9vGw84Tje5RA-14" source="gMLQxk1A9vGw84Tje5RA-15" target="gMLQxk1A9vGw84Tje5RA-4">
          <mxGeometry width="50" height="50" relative="1" as="geometry">
            <mxPoint x="-90" y="290" as="sourcePoint" />
            <mxPoint x="-40" y="240" as="targetPoint" />
          </mxGeometry>
        </mxCell>
        <mxCell id="ElflJJgZC1r8IvU2UBSL-90" value="" style="endArrow=none;html=1;rounded=0;" edge="1" parent="gMLQxk1A9vGw84Tje5RA-14" source="gMLQxk1A9vGw84Tje5RA-4" target="gMLQxk1A9vGw84Tje5RA-16">
          <mxGeometry width="50" height="50" relative="1" as="geometry">
            <mxPoint x="30" y="50" as="sourcePoint" />
            <mxPoint x="80" as="targetPoint" />
          </mxGeometry>
        </mxCell>
        <mxCell id="ElflJJgZC1r8IvU2UBSL-92" value="1..*" style="edgeLabel;html=1;align=center;verticalAlign=middle;resizable=0;points=[];" vertex="1" connectable="0" parent="ElflJJgZC1r8IvU2UBSL-90">
          <mxGeometry x="-0.72" y="-1" relative="1" as="geometry">
            <mxPoint as="offset" />
          </mxGeometry>
        </mxCell>
        <mxCell id="ElflJJgZC1r8IvU2UBSL-93" value="0..*" style="edgeLabel;html=1;align=center;verticalAlign=middle;resizable=0;points=[];" vertex="1" connectable="0" parent="ElflJJgZC1r8IvU2UBSL-90">
          <mxGeometry x="0.53" y="-1" relative="1" as="geometry">
            <mxPoint as="offset" />
          </mxGeometry>
        </mxCell>
        <mxCell id="gMLQxk1A9vGw84Tje5RA-21" value="TRUY CẬP NGƯỜI DÙNG" style="swimlane;whiteSpace=wrap;html=1;" parent="WIyWlLk6GJQsqaUBKTNV-1" vertex="1">
          <mxGeometry x="100" y="210" width="370" height="260" as="geometry" />
        </mxCell>
        <mxCell id="gMLQxk1A9vGw84Tje5RA-5" value="VAI TRÒ" style="swimlane;fontStyle=0;align=center;verticalAlign=top;childLayout=stackLayout;horizontal=1;startSize=26;horizontalStack=0;resizeParent=1;resizeLast=0;collapsible=1;marginBottom=0;rounded=0;shadow=0;strokeWidth=1;" parent="gMLQxk1A9vGw84Tje5RA-21" vertex="1">
          <mxGeometry x="260" y="106" width="100" height="64" as="geometry">
            <mxRectangle x="130" y="380" width="160" height="26" as="alternateBounds" />
          </mxGeometry>
        </mxCell>
        <mxCell id="gMLQxk1A9vGw84Tje5RA-24" value="NGƯỜI DÙNG" style="swimlane;fontStyle=0;align=center;verticalAlign=top;childLayout=stackLayout;horizontal=1;startSize=26;horizontalStack=0;resizeParent=1;resizeLast=0;collapsible=1;marginBottom=0;rounded=0;shadow=0;strokeWidth=1;" parent="gMLQxk1A9vGw84Tje5RA-21" vertex="1">
          <mxGeometry x="50" y="106" width="100" height="70" as="geometry">
            <mxRectangle x="340" y="380" width="170" height="26" as="alternateBounds" />
          </mxGeometry>
        </mxCell>
        <mxCell id="ElflJJgZC1r8IvU2UBSL-64" value="" style="endArrow=none;html=1;rounded=0;" edge="1" parent="gMLQxk1A9vGw84Tje5RA-21" source="gMLQxk1A9vGw84Tje5RA-24" target="gMLQxk1A9vGw84Tje5RA-5">
          <mxGeometry width="50" height="50" relative="1" as="geometry">
            <mxPoint x="-30" y="90" as="sourcePoint" />
            <mxPoint x="20" y="40" as="targetPoint" />
          </mxGeometry>
        </mxCell>
        <mxCell id="ElflJJgZC1r8IvU2UBSL-65" value="1..*" style="edgeLabel;html=1;align=center;verticalAlign=middle;resizable=0;points=[];" vertex="1" connectable="0" parent="ElflJJgZC1r8IvU2UBSL-64">
          <mxGeometry x="-0.0075" y="-1" relative="1" as="geometry">
            <mxPoint as="offset" />
          </mxGeometry>
        </mxCell>
        <mxCell id="ElflJJgZC1r8IvU2UBSL-31" value="" style="endArrow=none;html=1;rounded=0;entryX=1;entryY=0.5;entryDx=0;entryDy=0;exitX=1;exitY=0.5;exitDx=0;exitDy=0;" edge="1" parent="WIyWlLk6GJQsqaUBKTNV-1" source="gMLQxk1A9vGw84Tje5RA-2" target="2JwqMp_k5enSgnjFju4G-1">
          <mxGeometry width="50" height="50" relative="1" as="geometry">
            <mxPoint x="470" as="sourcePoint" />
            <mxPoint x="520" y="-50" as="targetPoint" />
            <Array as="points">
              <mxPoint x="590" y="870" />
              <mxPoint x="590" y="-125" />
            </Array>
          </mxGeometry>
        </mxCell>
        <mxCell id="ElflJJgZC1r8IvU2UBSL-32" value="is..a" style="text;html=1;align=center;verticalAlign=middle;resizable=0;points=[];autosize=1;strokeColor=none;fillColor=none;" vertex="1" parent="WIyWlLk6GJQsqaUBKTNV-1">
          <mxGeometry x="580" y="378" width="50" height="30" as="geometry" />
        </mxCell>
        <mxCell id="ElflJJgZC1r8IvU2UBSL-33" value="is..a" style="text;html=1;align=center;verticalAlign=middle;resizable=0;points=[];autosize=1;strokeColor=none;fillColor=none;" vertex="1" parent="WIyWlLk6GJQsqaUBKTNV-1">
          <mxGeometry x="260" y="840" width="50" height="30" as="geometry" />
        </mxCell>
        <mxCell id="ElflJJgZC1r8IvU2UBSL-57" value="*..0" style="text;html=1;align=center;verticalAlign=middle;resizable=0;points=[];autosize=1;strokeColor=none;fillColor=none;" vertex="1" parent="WIyWlLk6GJQsqaUBKTNV-1">
          <mxGeometry x="440" y="-192" width="40" height="30" as="geometry" />
        </mxCell>
        <mxCell id="ElflJJgZC1r8IvU2UBSL-63" value="0..*" style="text;html=1;align=center;verticalAlign=middle;resizable=0;points=[];autosize=1;strokeColor=none;fillColor=none;" vertex="1" parent="WIyWlLk6GJQsqaUBKTNV-1">
          <mxGeometry x="-290" y="728" width="40" height="30" as="geometry" />
        </mxCell>
        <mxCell id="ElflJJgZC1r8IvU2UBSL-67" value="" style="endArrow=none;html=1;rounded=0;" edge="1" parent="WIyWlLk6GJQsqaUBKTNV-1" source="ElflJJgZC1r8IvU2UBSL-58" target="gMLQxk1A9vGw84Tje5RA-24">
          <mxGeometry width="50" height="50" relative="1" as="geometry">
            <mxPoint x="140" y="620" as="sourcePoint" />
            <mxPoint x="190" y="570" as="targetPoint" />
          </mxGeometry>
        </mxCell>
        <mxCell id="ElflJJgZC1r8IvU2UBSL-69" value="Is a" style="edgeLabel;html=1;align=center;verticalAlign=middle;resizable=0;points=[];" vertex="1" connectable="0" parent="ElflJJgZC1r8IvU2UBSL-67">
          <mxGeometry x="-0.2258" y="-1" relative="1" as="geometry">
            <mxPoint as="offset" />
          </mxGeometry>
        </mxCell>
        <mxCell id="ElflJJgZC1r8IvU2UBSL-68" value="" style="endArrow=none;html=1;rounded=0;edgeStyle=orthogonalEdgeStyle;curved=1;" edge="1" parent="WIyWlLk6GJQsqaUBKTNV-1" source="ElflJJgZC1r8IvU2UBSL-61" target="gMLQxk1A9vGw84Tje5RA-24">
          <mxGeometry width="50" height="50" relative="1" as="geometry">
            <mxPoint x="-30" y="700" as="sourcePoint" />
            <mxPoint x="230" y="684" as="targetPoint" />
            <Array as="points">
              <mxPoint x="180" y="753" />
            </Array>
          </mxGeometry>
        </mxCell>
        <mxCell id="ElflJJgZC1r8IvU2UBSL-71" value="" style="endArrow=none;html=1;rounded=0;" edge="1" parent="WIyWlLk6GJQsqaUBKTNV-1" source="gMLQxk1A9vGw84Tje5RA-24" target="2JwqMp_k5enSgnjFju4G-0">
          <mxGeometry width="50" height="50" relative="1" as="geometry">
            <mxPoint x="-10" y="160" as="sourcePoint" />
            <mxPoint x="40" y="110" as="targetPoint" />
          </mxGeometry>
        </mxCell>
        <mxCell id="ElflJJgZC1r8IvU2UBSL-72" value="Is a" style="edgeLabel;html=1;align=center;verticalAlign=middle;resizable=0;points=[];" vertex="1" connectable="0" parent="ElflJJgZC1r8IvU2UBSL-71">
          <mxGeometry x="-0.1253" y="-1" relative="1" as="geometry">
            <mxPoint as="offset" />
          </mxGeometry>
        </mxCell>
        <mxCell id="ElflJJgZC1r8IvU2UBSL-73" value="QUẢN LÝ KHÁCH HÀNG" style="swimlane;whiteSpace=wrap;html=1;" vertex="1" parent="WIyWlLk6GJQsqaUBKTNV-1">
          <mxGeometry x="-391" y="120" width="421" height="240" as="geometry" />
        </mxCell>
        <mxCell id="ElflJJgZC1r8IvU2UBSL-74" value="KHÁCH HÀNG" style="swimlane;fontStyle=0;align=center;verticalAlign=top;childLayout=stackLayout;horizontal=1;startSize=26;horizontalStack=0;resizeParent=1;resizeLast=0;collapsible=1;marginBottom=0;rounded=0;shadow=0;strokeWidth=1;" vertex="1" parent="ElflJJgZC1r8IvU2UBSL-73">
          <mxGeometry x="20" y="30" width="160" height="70" as="geometry">
            <mxRectangle x="340" y="380" width="170" height="26" as="alternateBounds" />
          </mxGeometry>
        </mxCell>
        <mxCell id="ElflJJgZC1r8IvU2UBSL-75" value="ADMIN" style="swimlane;fontStyle=2;align=center;verticalAlign=top;childLayout=stackLayout;horizontal=1;startSize=26;horizontalStack=0;resizeParent=1;resizeLast=0;collapsible=1;marginBottom=0;rounded=0;shadow=0;strokeWidth=1;" vertex="1" collapsed="1" parent="ElflJJgZC1r8IvU2UBSL-73">
          <mxGeometry x="241" y="140" width="160" height="26" as="geometry">
            <mxRectangle x="270" y="140" width="160" height="68" as="alternateBounds" />
          </mxGeometry>
        </mxCell>
        <mxCell id="ElflJJgZC1r8IvU2UBSL-80" value="" style="endArrow=none;html=1;rounded=0;" edge="1" parent="ElflJJgZC1r8IvU2UBSL-73" source="ElflJJgZC1r8IvU2UBSL-75" target="ElflJJgZC1r8IvU2UBSL-74">
          <mxGeometry width="50" height="50" relative="1" as="geometry">
            <mxPoint x="261" y="160" as="sourcePoint" />
            <mxPoint x="311" y="110" as="targetPoint" />
          </mxGeometry>
        </mxCell>
        <mxCell id="ElflJJgZC1r8IvU2UBSL-81" value="&amp;nbsp;Duy trì/cấm" style="edgeLabel;html=1;align=center;verticalAlign=middle;resizable=0;points=[];" vertex="1" connectable="0" parent="ElflJJgZC1r8IvU2UBSL-80">
          <mxGeometry x="0.1021" y="1" relative="1" as="geometry">
            <mxPoint as="offset" />
          </mxGeometry>
        </mxCell>
        <mxCell id="ElflJJgZC1r8IvU2UBSL-76" value="" style="endArrow=none;html=1;rounded=0;" edge="1" parent="WIyWlLk6GJQsqaUBKTNV-1" source="ElflJJgZC1r8IvU2UBSL-75" target="gMLQxk1A9vGw84Tje5RA-24">
          <mxGeometry width="50" height="50" relative="1" as="geometry">
            <mxPoint x="-130" y="280" as="sourcePoint" />
            <mxPoint x="-80" y="230" as="targetPoint" />
          </mxGeometry>
        </mxCell>
        <mxCell id="ElflJJgZC1r8IvU2UBSL-77" value="" style="endArrow=none;html=1;rounded=0;edgeStyle=orthogonalEdgeStyle;curved=1;" edge="1" parent="WIyWlLk6GJQsqaUBKTNV-1" source="ElflJJgZC1r8IvU2UBSL-74" target="gMLQxk1A9vGw84Tje5RA-24">
          <mxGeometry width="50" height="50" relative="1" as="geometry">
            <mxPoint x="-130" y="280" as="sourcePoint" />
            <mxPoint x="-80" y="230" as="targetPoint" />
            <Array as="points">
              <mxPoint x="160" y="180" />
            </Array>
          </mxGeometry>
        </mxCell>
        <mxCell id="ElflJJgZC1r8IvU2UBSL-78" value="Is a" style="edgeLabel;html=1;align=center;verticalAlign=middle;resizable=0;points=[];" vertex="1" connectable="0" parent="WIyWlLk6GJQsqaUBKTNV-1">
          <mxGeometry x="109.99922245090366" y="129.99735286389466" as="geometry">
            <mxPoint x="-61" y="83" as="offset" />
          </mxGeometry>
        </mxCell>
        <mxCell id="ElflJJgZC1r8IvU2UBSL-79" value="Is a" style="edgeLabel;html=1;align=center;verticalAlign=middle;resizable=0;points=[];" vertex="1" connectable="0" parent="WIyWlLk6GJQsqaUBKTNV-1">
          <mxGeometry x="79.99922245090366" y="289.99735286389466" as="geometry">
            <mxPoint x="-16" y="20" as="offset" />
          </mxGeometry>
        </mxCell>
        <mxCell id="ElflJJgZC1r8IvU2UBSL-82" value="" style="endArrow=none;html=1;rounded=0;" edge="1" parent="WIyWlLk6GJQsqaUBKTNV-1" source="gMLQxk1A9vGw84Tje5RA-24" target="2JwqMp_k5enSgnjFju4G-2">
          <mxGeometry width="50" height="50" relative="1" as="geometry">
            <mxPoint x="300" y="160" as="sourcePoint" />
            <mxPoint x="350" y="110" as="targetPoint" />
          </mxGeometry>
        </mxCell>
        <mxCell id="ElflJJgZC1r8IvU2UBSL-84" value="Is a" style="edgeLabel;html=1;align=center;verticalAlign=middle;resizable=0;points=[];" vertex="1" connectable="0" parent="WIyWlLk6GJQsqaUBKTNV-1">
          <mxGeometry x="119.99922245090366" y="105.13735286389465" as="geometry">
            <mxPoint x="120" y="-35" as="offset" />
          </mxGeometry>
        </mxCell>
        <mxCell id="ElflJJgZC1r8IvU2UBSL-85" value="" style="endArrow=none;html=1;rounded=0;edgeStyle=orthogonalEdgeStyle;curved=1;" edge="1" parent="WIyWlLk6GJQsqaUBKTNV-1" source="gMLQxk1A9vGw84Tje5RA-15" target="gMLQxk1A9vGw84Tje5RA-24">
          <mxGeometry width="50" height="50" relative="1" as="geometry">
            <mxPoint x="230" y="560" as="sourcePoint" />
            <mxPoint x="280" y="510" as="targetPoint" />
            <Array as="points">
              <mxPoint x="190" y="723" />
            </Array>
          </mxGeometry>
        </mxCell>
        <mxCell id="ElflJJgZC1r8IvU2UBSL-86" value="Is a" style="edgeLabel;html=1;align=center;verticalAlign=middle;resizable=0;points=[];" vertex="1" connectable="0" parent="WIyWlLk6GJQsqaUBKTNV-1">
          <mxGeometry x="138.34149431541852" y="640.0018482969278" as="geometry" />
        </mxCell>
        <mxCell id="ElflJJgZC1r8IvU2UBSL-87" value="Is a" style="edgeLabel;html=1;align=center;verticalAlign=middle;resizable=0;points=[];" vertex="1" connectable="0" parent="WIyWlLk6GJQsqaUBKTNV-1">
          <mxGeometry x="148.34149431541852" y="650.0018482969278" as="geometry">
            <mxPoint x="44" y="-144" as="offset" />
          </mxGeometry>
        </mxCell>
        <mxCell id="ElflJJgZC1r8IvU2UBSL-89" value="rate" style="edgeLabel;html=1;align=center;verticalAlign=middle;resizable=0;points=[];" vertex="1" connectable="0" parent="WIyWlLk6GJQsqaUBKTNV-1">
          <mxGeometry x="158.34149431541852" y="660.0018482969278" as="geometry">
            <mxPoint x="116" y="-3" as="offset" />
          </mxGeometry>
        </mxCell>
        <mxCell id="ElflJJgZC1r8IvU2UBSL-95" value="" style="endArrow=none;html=1;rounded=0;" edge="1" parent="WIyWlLk6GJQsqaUBKTNV-1" source="gMLQxk1A9vGw84Tje5RA-16" target="zkfFHV4jXpPFQw0GAbJ--0">
          <mxGeometry width="50" height="50" relative="1" as="geometry">
            <mxPoint x="160" y="360" as="sourcePoint" />
            <mxPoint x="210" y="310" as="targetPoint" />
            <Array as="points">
              <mxPoint x="490" y="50" />
              <mxPoint x="120" y="50" />
              <mxPoint x="120" y="-40" />
              <mxPoint x="120" y="-180" />
            </Array>
          </mxGeometry>
        </mxCell>
        <mxCell id="ElflJJgZC1r8IvU2UBSL-96" value="Is a" style="edgeLabel;html=1;align=center;verticalAlign=middle;resizable=0;points=[];" vertex="1" connectable="0" parent="ElflJJgZC1r8IvU2UBSL-95">
          <mxGeometry x="-0.3213" y="2" relative="1" as="geometry">
            <mxPoint as="offset" />
          </mxGeometry>
        </mxCell>
        <mxCell id="ElflJJgZC1r8IvU2UBSL-98" value="Is a" style="edgeLabel;html=1;align=center;verticalAlign=middle;resizable=0;points=[];" vertex="1" connectable="0" parent="ElflJJgZC1r8IvU2UBSL-95">
          <mxGeometry x="-0.8772" y="-2" relative="1" as="geometry">
            <mxPoint as="offset" />
          </mxGeometry>
        </mxCell>
        <mxCell id="ElflJJgZC1r8IvU2UBSL-26" value="" style="endArrow=none;html=1;rounded=0;" edge="1" parent="WIyWlLk6GJQsqaUBKTNV-1" source="zkfFHV4jXpPFQw0GAbJ--0" target="gMLQxk1A9vGw84Tje5RA-10">
          <mxGeometry width="50" height="50" relative="1" as="geometry">
            <mxPoint x="40" y="-186" as="sourcePoint" />
            <mxPoint x="139" y="-186.5" as="targetPoint" />
          </mxGeometry>
        </mxCell>
        <mxCell id="ElflJJgZC1r8IvU2UBSL-27" value="is..a" style="edgeLabel;html=1;align=center;verticalAlign=middle;resizable=0;points=[];" vertex="1" connectable="0" parent="ElflJJgZC1r8IvU2UBSL-26">
          <mxGeometry x="-0.2771" y="-3" relative="1" as="geometry">
            <mxPoint x="14" y="-4" as="offset" />
          </mxGeometry>
        </mxCell>
      </root>
    </mxGraphModel>
  </diagram>
</mxfile>
